<?xml version="1.0" standalone="no"?><!DOCTYPE svg PUBLIC "-//W3C//DTD SVG 1.1//EN" "http://www.w3.org/Graphics/SVG/1.1/DTD/svg11.dtd"><svg t="1622705573624" class="icon" viewBox="0 0 1024 1024" version="1.1" xmlns="http://www.w3.org/2000/svg" p-id="874" xmlns:xlink="http://www.w3.org/1999/xlink" width="200" height="200"><defs><style type="text/css"></style></defs><path d="M957.641992 595.127202c0-2.404083-0.314333-4.808165-0.928664-7.130338l-84.090678-318.821508c-13.523477-47.003504-56.415058-76.194474-111.942406-76.194474H257.558353c-41.812405 0-93.87083 23.768474-109.579279 76.795495L64.052218 587.996864a27.924424 27.924424 0 0 0-0.928664 7.130338l0.004096 152.094069c0 46.340026 37.696386 84.036412 84.036412 84.036412h726.440494c46.340026 0 84.036412-37.696386 84.036412-84.036412l0.001024-152.094069zM201.839538 284.870495c7.335114-24.697138 34.026781-35.939399 55.718815-35.939399h503.120867c14.397875 0 48.902811 3.483258 58.013342 35.105956l82.805702 314.000032c-1.762107 13.441567-15.544627 25.065737-30.584478 25.065736H596.651767c-15.449406 0-27.975619 12.526213-27.975619 27.975619 0 32.141808-26.144912 58.28672-58.28672 58.28672s-58.28672-26.144912-58.28672-58.28672c0-15.449406-12.526213-27.975619-27.975618-27.975619H147.049386c-14.411186 0-26.308733-10.941239-27.811797-24.95618l82.601949-313.276145z m671.766042 490.363255H147.164062c-15.442238 0-28.012479-12.57024-28.012479-28.012479v-72.952853a83.523445 83.523445 0 0 0 27.897803 4.78564h252.571009c12.498568 49.517142 57.426656 86.262339 110.768009 86.262339 53.342378 0 98.269442-36.745197 110.76801-86.262339h249.757372c10.745676 0 21.107396-2.012959 30.702225-5.653895v73.822132c0.001024 15.441215-12.569216 28.011455-28.010431 28.011455z" fill="#999999" p-id="875"></path></svg>